<svg width="171" height="62" viewBox="0 0 171 62" fill="none" xmlns="http://www.w3.org/2000/svg">
<path d="M5.65909 46H1.22727L14.0455 11.0909H18.4091L31.2273 46H26.7955L16.3636 16.6136H16.0909L5.65909 46ZM7.29545 32.3636H25.1591V36.1136H7.29545V32.3636ZM40.142 30.25V46H36.1193V19.8182H40.0057V23.9091H40.3466C40.9602 22.5795 41.892 21.5114 43.142 20.7045C44.392 19.8864 46.0057 19.4773 47.983 19.4773C49.7557 19.4773 51.3068 19.8409 52.6364 20.5682C53.9659 21.2841 55 22.375 55.7386 23.8409C56.4773 25.2955 56.8466 27.1364 56.8466 29.3636V46H52.8239V29.6364C52.8239 27.5795 52.2898 25.9773 51.2216 24.8295C50.1534 23.6705 48.6875 23.0909 46.8239 23.0909C45.5398 23.0909 44.392 23.3693 43.3807 23.9261C42.3807 24.483 41.5909 25.2955 41.0114 26.3636C40.4318 27.4318 40.142 28.7273 40.142 30.25ZM64.1974 46V19.8182H68.2202V46H64.1974ZM66.2429 15.4545C65.4588 15.4545 64.7827 15.1875 64.2145 14.6534C63.6577 14.1193 63.3793 13.4773 63.3793 12.7273C63.3793 11.9773 63.6577 11.3352 64.2145 10.8011C64.7827 10.267 65.4588 10 66.2429 10C67.027 10 67.6974 10.267 68.2543 10.8011C68.8224 11.3352 69.1065 11.9773 69.1065 12.7273C69.1065 13.4773 68.8224 14.1193 68.2543 14.6534C67.6974 15.1875 67.027 15.4545 66.2429 15.4545Z" fill="white"/>
<path d="M76.1335 11.0909H81.179L93.0426 40.0682H93.4517L105.315 11.0909H110.361V46H106.406V19.4773H106.065L95.1562 46H91.3381L80.429 19.4773H80.0881V46H76.1335V11.0909ZM118.291 46V19.8182H122.314V46H118.291ZM120.337 15.4545C119.553 15.4545 118.876 15.1875 118.308 14.6534C117.751 14.1193 117.473 13.4773 117.473 12.7273C117.473 11.9773 117.751 11.3352 118.308 10.8011C118.876 10.267 119.553 10 120.337 10C121.121 10 121.791 10.267 122.348 10.8011C122.916 11.3352 123.2 11.9773 123.2 12.7273C123.2 13.4773 122.916 14.1193 122.348 14.6534C121.791 15.1875 121.121 15.4545 120.337 15.4545ZM132.682 19.8182L138.955 30.5227L145.227 19.8182H149.864L141.409 32.9091L149.864 46H145.227L138.955 35.8409L132.682 46H128.045L136.364 32.9091L128.045 19.8182H132.682Z" fill="#FFA800"/>
</svg>
